HIERARCHY
ROOT hip
{
  OFFSET 0 0 0
  CHANNELS 6 Xposition Yposition Zposition Zrotation Yrotation Xrotation
  JOINT abdomen
  {
    OFFSET 0 20.6881 -0.73152
    CHANNELS 3 Zrotation Xrotation Yrotation
    JOINT chest
    {
      OFFSET 0 11.7043 -0.48768
      CHANNELS 3 Zrotation Xrotation Yrotation
      JOINT neck
      {
        OFFSET 0 22.1894 -2.19456
        CHANNELS 3 Zrotation Xrotation Yrotation
        JOINT head
        {
          OFFSET -0.24384 7.07133 1.2192
          CHANNELS 3 Zrotation Xrotation Yrotation
          JOINT leftEye
          {
            OFFSET 4.14528 8.04674 8.04672
            CHANNELS 3 Zrotation Xrotation Yrotation
            End Site
            {
              OFFSET 1 0 0
            }
          }
          JOINT rightEye
          {
            OFFSET -3.6576 8.04674 8.04672
            CHANNELS 3 Zrotation Xrotation Yrotation
            End Site
            {
              OFFSET 1 0 0
            }
          }
        }
      }
      JOINT rCollar
      {
        OFFSET -2.68224 19.2634 -4.8768
        CHANNELS 3 Zrotation Xrotation Yrotation
        JOINT rShldr
        {
          OFFSET -8.77824 -1.95073 1.46304
          CHANNELS 3 Zrotation Xrotation Yrotation
          JOINT rForeArm
          {
            OFFSET -28.1742 -1.7115 0.48768
            CHANNELS 3 Zrotation Xrotation Yrotation
            JOINT rHand
            {
              OFFSET -22.5879 0.773209 7.07136
              CHANNELS 3 Zrotation Xrotation Yrotation
              JOINT rThumb1
              {
                OFFSET -1.2192 -0.487915 3.41376
                CHANNELS 3 Zrotation Xrotation Yrotation
                JOINT rThumb2
                {
                  OFFSET -3.37035 -0.52449 3.41376
                  CHANNELS 3 Zrotation Xrotation Yrotation
                  End Site
                  {
                    OFFSET -1.78271 -1.18214 1.43049
                  }
                }
              }
              JOINT rIndex1
              {
                OFFSET -7.75947 0.938293 5.60832
                CHANNELS 3 Zrotation Xrotation Yrotation
                JOINT rIndex2
                {
                  OFFSET -2.54057 -0.884171 1.56538
                  CHANNELS 3 Zrotation Xrotation Yrotation
                  End Site
                  {
                    OFFSET -1.62519 -0.234802 1.16502
                  }
                }
              }
              JOINT rMid1
              {
                OFFSET -8.24714 1.18213 3.41376
                CHANNELS 3 Zrotation Xrotation Yrotation
                JOINT rMid2
                {
                  OFFSET -3.10165 -0.590103 1.0647
                  CHANNELS 3 Zrotation Xrotation Yrotation
                  End Site
                  {
                    OFFSET -2.48547 -0.328903 0.83742
                  }
                }
              }
              JOINT rRing1
              {
                OFFSET -8.82822 0.546677 1.51678
                CHANNELS 3 Zrotation Xrotation Yrotation
                JOINT rRing2
                {
                  OFFSET -2.60934 -0.819778 -0.0198488
                  CHANNELS 3 Zrotation Xrotation Yrotation
                  End Site
                  {
                    OFFSET -2.33842 -0.294052 0.168128
                  }
                }
              }
              JOINT rPinky1
              {
                OFFSET -8.27202 -0.0477905 -0.4584
                CHANNELS 3 Zrotation Xrotation Yrotation
                JOINT rPinky2
                {
                  OFFSET -1.82734 -0.647385 -0.700984
                  CHANNELS 3 Zrotation Xrotation Yrotation
                  End Site
                  {
                    OFFSET -1.69225 -0.51767 -0.607171
                  }
                }
              }
            }
          }
        }
      }
      JOINT lCollar
      {
        OFFSET 2.68224 19.2634 -4.8768
        CHANNELS 3 Zrotation Xrotation Yrotation
        JOINT lShldr
        {
          OFFSET 8.77824 -1.95073 1.46304
          CHANNELS 3 Zrotation Xrotation Yrotation
          JOINT lForeArm
          {
            OFFSET 28.1742 -1.7115 0.48768
            CHANNELS 3 Zrotation Xrotation Yrotation
            JOINT lHand
            {
              OFFSET 22.5879 0.773209 7.07136
              CHANNELS 3 Zrotation Xrotation Yrotation
              JOINT lThumb1
              {
                OFFSET 1.2192 -0.487915 3.41376
                CHANNELS 3 Zrotation Xrotation Yrotation
                JOINT lThumb2
                {
                  OFFSET 3.37035 -0.52449 3.41376
                  CHANNELS 3 Zrotation Xrotation Yrotation
                  End Site
                  {
                    OFFSET 1.78271 -1.18214 1.43049
                  }
                }
              }
              JOINT lIndex1
              {
                OFFSET 7.75947 0.938293 5.60832
                CHANNELS 3 Zrotation Xrotation Yrotation
                JOINT lIndex2
                {
                  OFFSET 2.54057 -0.884171 1.56538
                  CHANNELS 3 Zrotation Xrotation Yrotation
                  End Site
                  {
                    OFFSET 1.62519 -0.234802 1.16502
                  }
                }
              }
              JOINT lMid1
              {
                OFFSET 8.24714 1.18213 3.41376
                CHANNELS 3 Zrotation Xrotation Yrotation
                JOINT lMid2
                {
                  OFFSET 3.10165 -0.590103 1.0647
                  CHANNELS 3 Zrotation Xrotation Yrotation
                  End Site
                  {
                    OFFSET 2.48547 -0.328903 0.83742
                  }
                }
              }
              JOINT lRing1
              {
                OFFSET 8.82822 0.546677 1.51678
                CHANNELS 3 Zrotation Xrotation Yrotation
                JOINT lRing2
                {
                  OFFSET 2.60934 -0.819778 -0.0198488
                  CHANNELS 3 Zrotation Xrotation Yrotation
                  End Site
                  {
                    OFFSET 2.33842 -0.294052 0.168128
                  }
                }
              }
              JOINT lPinky1
              {
                OFFSET 8.27202 -0.0477905 -0.4584
                CHANNELS 3 Zrotation Xrotation Yrotation
                JOINT lPinky2
                {
                  OFFSET 1.82734 -0.647385 -0.700984
                  CHANNELS 3 Zrotation Xrotation Yrotation
                  End Site
                  {
                    OFFSET 1.69225 -0.51767 -0.607171
                  }
                }
              }
            }
          }
        }
      }
    }
  }
  JOINT rButtock
  {
    OFFSET -8.77824 4.35084 1.2192
    CHANNELS 3 Zrotation Xrotation Yrotation
    JOINT rThigh
    {
      OFFSET 0 -1.70687 -2.19456
      CHANNELS 3 Zrotation Xrotation Yrotation
      JOINT rShin
      {
        OFFSET 0 -36.8199 0.73152
        CHANNELS 3 Zrotation Xrotation Yrotation
        JOINT rFoot
        {
          OFFSET 0.73152 -45.1104 -5.12064
          CHANNELS 3 Zrotation Xrotation Yrotation
          End Site
          {
            OFFSET -1.1221 -3.69964 12.103
          }
        }
      }
    }
  }
  JOINT lButtock
  {
    OFFSET 8.77824 4.35084 1.2192
    CHANNELS 3 Zrotation Xrotation Yrotation
    JOINT lThigh
    {
      OFFSET 0 -1.70687 -2.19456
      CHANNELS 3 Zrotation Xrotation Yrotation
      JOINT lShin
      {
        OFFSET 0 -36.8199 0.73152
        CHANNELS 3 Zrotation Xrotation Yrotation
        JOINT lFoot
        {
          OFFSET -0.73152 -45.1104 -5.12064
          CHANNELS 3 Zrotation Xrotation Yrotation
          End Site
          {
            OFFSET 1.1221 -3.69964 12.103
          }
        }
      }
    }
  }
}
MOTION
Frames:	4
Frame Time:	0.03333
-0.009130000241436662 54.70520145901779 -0.004999999877891834 1.3373998403549194 45.42689895629883 2.0621001720428467 -7.374710559844971 8.359159469604492 -3.204469919204712 5.109200477600098 -10.47029972076416 -0.4608778953552246 -10.119799613952637 19.799701690673828 -15.710198402404785 16.634798049926758 -21.410900115966797 -27.991899490356445 -0.0 0.0 -0.0 -0.0 0.0 -0.0 2.1767599861824936e-14 -6.043000030497153e-14 1.431749955139311e-13 58.588497161865234 -0.47919031977653503 24.34429931640625 -28.245800018310547 -32.35519790649414 71.0186996459961 -0.4034240245819092 17.765499114990234 2.5808701515197754 1.3648400187804555e-09 2.6708699141231307e-10 -2.3185400266356737e-09 2.3316200081779925e-09 3.882029697699352e-10 -4.027250088967094e-09 1.3648498997653746e-09 2.670999810217012e-10 -2.3185500186428953e-09 7.730909824371338 5.474879741668701 0.4173140823841095 1.3648498997653746e-09 2.670999810217012e-10 -2.3185400266356737e-09 2.9055399894714355 0.9651829600334167 0.10290199518203735 1.3648400187804555e-09 2.6709001677005517e-10 -2.3185400266356737e-09 10.27859878540039 0.73180091381073 0.025912316516041756 1.3648400187804555e-09 2.670909882152017e-10 -2.3185400266356737e-09 2.221669912338257 -0.733487069606781 -0.208919957280159 2.1618599990139327e-14 -6.043249396996825e-14 1.4302599903037727e-13 -64.9573974609375 78.83162689208984 -9.90583610534668 27.633602142333984 -42.02420425415039 -87.63479614257812 41.14419937133789 -79.39688873291016 48.6553955078125 4.117819973892267e-10 -2.3427899620287462e-09 -1.4258799696520441e-09 7.943339874749711e-10 1.0642899894719449e-09 -2.3894499712184825e-09 4.1177497522859596e-10 -2.342739779948033e-09 -1.42586986662252e-09 -7.730909824371338 5.474879741668701 -0.4173140823841095 4.1178399579067104e-10 -2.3427599860070814e-09 -1.42586986662252e-09 -2.9055399894714355 0.9651829600334167 -0.10290199518203735 4.117799989877824e-10 -2.342769978014303e-09 -1.4258799696520441e-09 -10.27859878540039 0.73180091381073 -0.025912316516041756 4.1178899179428186e-10 -2.3427599860070814e-09 -1.42586986662252e-09 -2.221669912338257 -0.733487069606781 0.208919957280159 -2.0321699480147914e-16 0.0 -3.8825099822884138e-19 -62.64889907836914 -46.31060791015625 -63.24599075317383 -1.7613099813461304 66.50589752197266 1.6915100812911987 -0.1260259598493576 4.470959663391113 9.21360969543457 2.0321699480147914e-16 0.0 3.8825099822884138e-19 28.192399978637695 -25.081802368164062 32.72010040283203 3.310380220413208 80.20343017578125 -6.6366190910339355 12.418598175048828 -28.883502960205078 25.39430046081543
-0.015980000044966757 54.69619926969172 -0.009999999755783667 1.305400013923645 45.45079803466797 2.056100368499756 -7.344740390777588 8.34641170501709 -3.2000789642333984 5.092010021209717 -10.48340129852295 -0.45890507102012634 -10.10949993133545 19.79640007019043 -15.707195281982422 16.65180015563965 -21.413400650024414 -27.982698440551758 -0.0 0.0 -0.0 -0.0 0.0 -0.0 4.1302498801718684e-14 3.282519994208567e-14 3.696119744902443e-13 58.59359359741211 -0.49644994735717773 24.303298950195312 -28.244901657104492 -32.350101470947266 71.01189422607422 -0.403207004070282 17.760902404785156 2.5801501274108887 1.1563799917624351e-09 -6.56036058810372e-10 -2.8196998069773827e-09 1.9676198448337345e-09 -1.2069599764075178e-09 -4.888339955044785e-09 1.1563899837696567e-09 -6.560270104927213e-10 -2.819710021029209e-09 7.730909824371338 5.474879741668701 0.4173140823841095 1.1563799917624351e-09 -6.560289533830144e-10 -2.8196998069773827e-09 2.9055399894714355 0.9651829600334167 0.10290199518203735 1.1563799917624351e-09 -6.560330056970543e-10 -2.8196998069773827e-09 10.27859878540039 0.73180091381073 0.025912316516041756 1.156369888732911e-09 -6.560320064963321e-10 -2.8196998069773827e-09 2.221669912338257 -0.733487069606781 -0.208919957280159 4.1149196002661023e-14 3.282189990172317e-14 3.694379871466147e-13 -64.85429382324219 78.83932495117188 -9.989859580993652 27.636598587036133 -42.013607025146484 -87.61380004882812 41.041595458984375 -79.38032531738281 48.55109786987305 -2.090250056374643e-10 -3.471099674356992e-08 -1.5620099658164577e-09 -2.6137100817003045e-10 -5.4500102208976386e-08 -2.6530999619467366e-09 -2.0903100084179727e-10 -3.471099674356992e-08 -1.5620000848315385e-09 -7.730909824371338 5.474879741668701 -0.4173140823841095 -2.090239786811665e-10 -3.471099674356992e-08 -1.5620000848315385e-09 -2.9055399894714355 0.9651829600334167 -0.10290199518203735 -2.0902900244035294e-10 -3.471099674356992e-08 -1.5620099658164577e-09 -10.27859878540039 0.73180091381073 -0.025912316516041756 -2.0901799735462134e-10 -3.471099674356992e-08 -1.5620099658164577e-09 -2.221669912338257 -0.733487069606781 0.208919957280159 -2.0321699480147914e-16 0.0 -3.8825099822884138e-19 -62.66019821166992 -46.317604064941406 -63.2809944152832 -1.7639199495315552 66.52130126953125 1.696869969367981 -0.12521299719810486 4.474869728088379 9.209440231323242 2.0321699480147914e-16 0.0 3.8825099822884138e-19 28.222097396850586 -25.13640022277832 32.70349884033203 3.33128023147583 80.2359390258789 -6.660120487213135 12.433899879455566 -28.878503799438477 25.421499252319336
-0.019880000124812686 54.68830015591659 -0.013999999741473467 1.2783998250961304 45.47200012207031 2.0513999462127686 -7.323570251464844 8.339059829711914 -3.18500018119812 5.075079441070557 -10.494900703430176 -0.45420095324516296 -10.100299835205078 19.790802001953125 -15.704097747802734 16.6752986907959 -21.402599334716797 -27.973194122314453 -0.0 0.0 -0.0 -0.0 0.0 -0.0 4.916999831383259e-14 1.248370032564186e-13 4.5173801223145904e-13 58.608001708984375 -0.5220257043838501 24.25769805908203 -28.243497848510742 -32.340396881103516 70.99840545654297 -0.40282008051872253 17.752700805664062 2.578889846801758 3.734750009254384e-10 -1.6404999580998947e-09 -2.2395700849386913e-09 6.231269944478868e-10 -2.8777400462587366e-09 -3.873669829346227e-09 3.7348396597636224e-10 -1.6404900771149755e-09 -2.2395898469085296e-09 7.730909824371338 5.474879741668701 0.4173140823841095 3.734739739691406e-10 -1.6404999580998947e-09 -2.239580076945913e-09 2.9055399894714355 0.9651829600334167 0.10290199518203735 3.7348099612977137e-10 -1.6404900771149755e-09 -2.239580076945913e-09 10.27859878540039 0.73180091381073 0.025912316516041756 3.734739739691406e-10 -1.6404900771149755e-09 -2.2395700849386913e-09 2.221669912338257 -0.733487069606781 -0.208919957280159 4.903289756099001e-14 1.248349974823995e-13 4.51538979817645e-13 -64.7020034790039 78.8540267944336 -10.127299308776855 27.640098571777344 -42.00179672241211 -87.59010314941406 41.03209686279297 -79.37869262695312 48.54130554199219 -9.289550240154654e-10 -6.259699603106128e-08 -1.0992800003606362e-09 -1.5241800044307752e-09 -1.0449099363540881e-07 -1.9096000336560337e-09 -9.289580216176319e-10 -6.259699603106128e-08 -1.0992800003606362e-09 -7.730909824371338 5.474879741668701 -0.4173140823841095 -9.289540248147432e-10 -6.259699603106128e-08 -1.0992800003606362e-09 -2.9055399894714355 0.9651829600334167 -0.10290199518203735 -9.289609637086471e-10 -6.259699603106128e-08 -1.0992800003606362e-09 -10.27859878540039 0.73180091381073 -0.025912316516041756 -9.289469748985368e-10 -6.259699603106128e-08 -1.0992899923678578e-09 -2.221669912338257 -0.733487069606781 0.208919957280159 -2.0321699480147914e-16 0.0 -3.8825099822884138e-19 -62.66239929199219 -46.32350540161133 -63.30429458618164 -1.765529990196228 66.53321838378906 1.7011798620224 -0.12436897307634354 4.478450298309326 9.202679634094238 2.0321699480147914e-16 0.0 3.8825099822884138e-19 28.252702713012695 -25.17780303955078 32.69379806518555 3.347179651260376 80.26160430908203 -6.677229404449463 12.43910026550293 -28.881399154663086 25.429698944091797
-0.022270000209018512 54.68229983473074 -0.015999999734318367 1.263700008392334 45.482704162597656 2.049800157546997 -7.322469711303711 8.340099334716797 -3.1565499305725098 5.066299915313721 -10.503900527954102 -0.4464939832687378 -10.10059928894043 19.776700973510742 -15.69990062713623 16.70149803161621 -21.380701065063477 -27.962596893310547 -0.0 0.0 -0.0 -0.0 0.0 -0.0 1.096989998296792e-14 1.0731499510644588e-13 2.187659911079623e-13 58.62379837036133 -0.5494382381439209 24.20819664001465 -28.242401123046875 -32.3329963684082 70.98799896240234 -0.40165701508522034 17.728097915649414 2.5750699043273926 -6.097869431620495e-10 -1.0060799970901257e-09 3.5966898903616595e-10 -1.0472499534230906e-09 -1.7154501152916168e-09 6.308870093008068e-10 -6.097800042681456e-10 -1.0060799970901257e-09 3.596520026238892e-10 7.730909824371338 5.474879741668701 0.4173140823841095 -6.097879978739229e-10 -1.0060698940606017e-09 3.596630215874086e-10 2.9055399894714355 0.9651829600334167 0.10290199518203735 -6.097850002717564e-10 -1.0060698940606017e-09 3.596630215874086e-10 10.27859878540039 0.73180091381073 0.025912316516041756 -6.097889970746451e-10 -1.0060698940606017e-09 3.5967198663833244e-10 2.221669912338257 -0.733487069606781 -0.208919957280159 1.087219981469982e-14 1.0732099209971244e-13 2.185920037643327e-13 -64.56919860839844 78.8602066040039 -10.259100914001465 27.642797470092773 -41.99259567260742 -87.57140350341797 41.15670394897461 -79.39891052246094 48.6681022644043 -8.379699711902333e-10 -3.612530008467729e-08 3.9639500015731244e-10 -1.4620599175785287e-09 -6.41472013285238e-08 6.249690209791936e-10 -8.379719695916776e-10 -3.612530008467729e-08 3.96395971602459e-10 -7.730909824371338 5.474879741668701 -0.4173140823841095 -8.379699711902333e-10 -3.612530008467729e-08 3.9639699855875676e-10 -2.9055399894714355 0.9651829600334167 -0.10290199518203735 -8.379779647960106e-10 -3.612530008467729e-08 3.963929740002925e-10 -10.27859878540039 0.73180091381073 -0.025912316516041756 -8.379609228725826e-10 -3.612530008467729e-08 3.9638298199307087e-10 -2.221669912338257 -0.733487069606781 0.208919957280159 -2.0321699480147914e-16 0.0 -3.8825099822884138e-19 -62.662296295166016 -46.33290481567383 -63.31369400024414 -1.7664897441864014 66.53981018066406 1.703549861907959 -0.123695008456707 4.48076057434082 9.191530227661133 2.0321699480147914e-16 0.0 3.8825099822884138e-19 28.278499603271484 -25.19560432434082 32.70229721069336 3.3540399074554443 80.27620697021484 -6.684760093688965 12.439000129699707 -28.878803253173828 25.429500579833984
